<svg width="64" height="69" viewBox="0 0 64 69" fill="none" xmlns="http://www.w3.org/2000/svg">
<g clip-path="url(#clip0_4225_9434)">
<path d="M39.172 17.8825C32.982 17.8825 26.881 20.54 22.2232 25.7647V0H13.006V43.3797C13.006 57.4612 24.4212 68.8767 38.503 68.8767C52.5847 68.8767 64 57.4612 64 43.3797C64 29.2982 53.2535 17.8825 39.172 17.8825ZM38.503 59.0563C29.845 59.0563 22.8262 52.0375 22.8262 43.3797C22.8262 34.722 29.845 27.703 38.503 27.703C47.1607 27.703 54.1795 34.7217 54.1795 43.3797C54.1795 52.0377 47.1607 59.0563 38.503 59.0563Z" fill="#FFFFFF"/>
<path d="M6.305 56.2666C2.8225 56.2666 0 59.0896 0 62.5716C0 66.0536 2.82275 68.8766 6.305 68.8766C9.78725 68.8766 12.61 66.0536 12.61 62.5716C12.61 59.0896 9.78725 56.2666 6.305 56.2666Z" fill="#0000FF"/>
</g>
<defs>
<clipPath id="clip0_4225_9434">
<rect width="64" height="69" fill="white"/>
</clipPath>
</defs>
</svg>
