<svg width="16" height="16" viewBox="0 0 16 16" fill="none" xmlns="http://www.w3.org/2000/svg">
<path fill-rule="evenodd" clip-rule="evenodd" d="M11 12.5H13C13.1326 12.5 13.2598 12.4473 13.3536 12.3536C13.4473 12.2598 13.5 12.1326 13.5 12V10C13.5 9.86739 13.4473 9.74021 13.3536 9.64645C13.2598 9.55268 13.1326 9.5 13 9.5H11C10.8674 9.5 10.7402 9.55268 10.6464 9.64645C10.5527 9.74021 10.5 9.86739 10.5 10V12C10.5 12.1326 10.5527 12.2598 10.6464 12.3536C10.7402 12.4473 10.8674 12.5 11 12.5ZM13 14C13.5304 14 14.0391 13.7893 14.4142 13.4142C14.7893 13.0391 15 12.5304 15 12V10C15 9.46957 14.7893 8.96086 14.4142 8.58579C14.0391 8.21071 13.5304 8 13 8H11.15L10.303 6.518C10.5217 6.33017 10.6973 6.09726 10.8176 5.83525C10.9379 5.57324 11.0001 5.28831 11 5V3C11 2.46957 10.7893 1.96086 10.4142 1.58579C10.0391 1.21071 9.53043 1 9 1H7C6.46957 1 5.96086 1.21071 5.58579 1.58579C5.21071 1.96086 5 2.46957 5 3V5C5 5.607 5.27 6.151 5.697 6.518L4.85 8H3C2.46957 8 1.96086 8.21071 1.58579 8.58579C1.21071 8.96086 1 9.46957 1 10V12C1 12.5304 1.21071 13.0391 1.58579 13.4142C1.96086 13.7893 2.46957 14 3 14H5C5.53043 14 6.03914 13.7893 6.41421 13.4142C6.78929 13.0391 7 12.5304 7 12V10C7 9.393 6.73 8.849 6.303 8.482L7.15 7H8.85L9.698 8.482C9.27 8.85 9 9.392 9 10V12C9 12.5304 9.21071 13.0391 9.58579 13.4142C9.96086 13.7893 10.4696 14 11 14H13ZM3 12.5H5C5.13261 12.5 5.25979 12.4473 5.35355 12.3536C5.44732 12.2598 5.5 12.1326 5.5 12V10C5.5 9.86739 5.44732 9.74021 5.35355 9.64645C5.25979 9.55268 5.13261 9.5 5 9.5H3C2.86739 9.5 2.74021 9.55268 2.64645 9.64645C2.55268 9.74021 2.5 9.86739 2.5 10V12C2.5 12.1326 2.55268 12.2598 2.64645 12.3536C2.74021 12.4473 2.86739 12.5 3 12.5ZM9 5.5H7C6.86739 5.5 6.74021 5.44732 6.64645 5.35355C6.55268 5.25979 6.5 5.13261 6.5 5V3C6.5 2.86739 6.55268 2.74021 6.64645 2.64645C6.74021 2.55268 6.86739 2.5 7 2.5H9C9.13261 2.5 9.25979 2.55268 9.35355 2.64645C9.44732 2.74021 9.5 2.86739 9.5 3V5C9.5 5.13261 9.44732 5.25979 9.35355 5.35355C9.25979 5.44732 9.13261 5.5 9 5.5Z" fill="#F6F6F6"/>
</svg>
