<svg width="128" height="29" viewBox="0 0 128 29" fill="none" xmlns="http://www.w3.org/2000/svg">
<g clip-path="url(#clip0_4225_9431)">
<path d="M55.3035 0V10.8237C57.26 8.62875 59.823 7.5125 62.4235 7.5125C68.3392 7.5125 72.8535 12.3083 72.8535 18.224C72.8535 24.1398 68.058 28.9352 62.1425 28.9352C56.2857 28.9352 51.5272 24.235 51.4325 18.401L51.431 18.224V0H55.3035ZM79.294 0V10.8237C81.2507 8.62875 83.814 7.5125 86.414 7.5125C92.3297 7.5125 96.8445 12.3083 96.8445 18.224C96.8445 24.1398 92.0487 28.9352 86.1332 28.9352C80.2765 28.9352 75.518 24.235 75.4232 18.401L75.422 18.224V0H79.294ZM33.7962 8.0935V20.0625C33.7962 23.1207 35.5707 25.084 38.5537 25.084C41.574 25.084 43.311 23.1962 43.311 20.0625V8.0935H47.5017V20.1C47.5017 25.6503 44.1417 28.935 38.5535 28.935C33.1165 28.935 29.643 25.537 29.643 20.1V8.0935H33.7962ZM9.33624 0V10.8237C11.2927 8.62875 13.8557 7.5125 16.4562 7.5125C22.3717 7.5125 26.8862 12.3083 26.8862 18.224C26.8862 24.1398 22.091 28.935 16.1755 28.935C10.3187 28.935 5.55999 24.2347 5.46549 18.4007L5.46399 18.2237V0H9.33624ZM118.032 7.6025C120.94 7.6025 123.356 8.50875 125.206 10.3588C127.056 12.2088 128 14.7007 128 17.8725C128 17.9292 128 17.987 127.999 18.046L127.997 18.165L127.995 18.2257L127.991 18.3493C127.972 18.8597 127.925 19.3688 127.849 19.874H111.953C112.558 23.0455 114.785 25.1975 118.712 25.1975C121.015 25.1975 123.809 24.3292 125.621 23.0075L127.358 26.066C125.281 27.614 121.997 28.8978 118.561 28.8978C110.934 28.8978 107.649 23.574 107.649 18.2127C107.649 15.1542 108.593 12.6245 110.519 10.6235C112.444 8.62225 114.974 7.603 118.032 7.603M104.339 0V28.4443H100.185V0H104.339ZM62.1425 11.638C58.505 11.638 55.5567 14.5865 55.5567 18.2237C55.5567 21.861 58.5052 24.8095 62.1425 24.8095C65.7797 24.8095 68.7282 21.861 68.7282 18.2237C68.7282 14.5865 65.7797 11.638 62.1425 11.638ZM86.1332 11.638C82.4957 11.638 79.5475 14.5865 79.5475 18.2237C79.5475 21.861 82.496 24.8095 86.1332 24.8095C89.7705 24.8095 92.719 21.861 92.719 18.2237C92.719 14.5865 89.7702 11.638 86.1332 11.638ZM16.1752 11.638C12.5377 11.638 9.58924 14.5865 9.58924 18.2237C9.58924 21.861 12.538 24.8095 16.1752 24.8095C19.8122 24.8095 22.761 21.861 22.761 18.2237C22.761 14.5865 19.8125 11.638 16.1752 11.638ZM118.032 11.1895C114.898 11.1895 112.557 13.304 111.953 16.4755H123.809C123.469 13.2663 121.09 11.1895 118.032 11.1895Z" fill="#262626"/>
<path d="M2.64875 23.6377C1.18575 23.6377 0 24.8237 0 26.2864C0 27.7492 1.18575 28.9352 2.64875 28.9352C4.1115 28.9352 5.2975 27.7494 5.2975 26.2864C5.2975 24.8239 4.1115 23.6377 2.64875 23.6377Z" fill="#0000FF"/>
</g>
<defs>
<clipPath id="clip0_4225_9431">
<rect width="128" height="29" fill="wblackhite"/>
</clipPath>
</defs>
</svg>
