<svg width="16" height="16" viewBox="0 0 16 16" fill="none" xmlns="http://www.w3.org/2000/svg">
<g clip-path="url(#clip0_4225_9459)">
<path fill-rule="evenodd" clip-rule="evenodd" d="M15.4073 9.598C15.351 9.23325 15.0446 8.99437 14.6882 8.97825C14.5592 8.97237 14.4283 8.98587 14.2996 9.00225C14.1443 9.022 13.9907 9.057 13.8357 9.08012C13.7286 9.09612 13.62 9.1035 13.513 9.1145L13.5104 9.10063C13.7101 8.72338 13.9183 8.35025 14.1073 7.96763C14.2521 7.67413 14.3761 7.37 14.5042 7.06838C14.7162 6.56863 14.8856 6.05337 15.0259 5.52975C15.1603 5.02837 15.2752 4.5215 15.3114 4.00138C15.3259 3.79363 15.3359 3.585 15.3348 3.377C15.3338 3.21113 15.3159 3.045 15.2992 2.87963C15.2805 2.69013 15.2233 2.5105 15.144 2.33763C15.0395 2.10988 14.8775 1.923 14.707 1.7455C14.5705 1.60337 14.4204 1.47387 14.2715 1.3445C14.0592 1.15987 13.8206 1.0125 13.5728 0.881625C13.2919 0.732437 12.9945 0.617049 12.6865 0.537875C12.4999 0.49025 12.309 0.454875 12.12 0.417125C12.052 0.403375 11.9839 0.375 11.9159 0.375H10.6357C10.5895 0.375 10.5436 0.398875 10.497 0.404125C10.1905 0.43825 9.88763 0.496 9.5935 0.587125C9.4835 0.62125 9.383 0.59975 9.2785 0.590125C9.19837 0.58275 9.11963 0.56125 9.0395 0.55725C8.73425 0.542 8.42862 0.519625 8.1235 0.522875C7.83112 0.525875 7.54175 0.574 7.25875 0.654375C7.02187 0.721625 6.79013 0.80375 6.57788 0.92825C6.487 0.9815 6.415 0.9715 6.321 0.944375C6.00513 0.85325 5.687 0.767625 5.36613 0.69575C5.16613 0.651 4.9605 0.62875 4.75625 0.607375C4.56026 0.586975 4.36351 0.574715 4.1665 0.570625C3.97425 0.5665 3.78063 0.566625 3.58925 0.583625C3.28444 0.610174 2.98398 0.673681 2.6945 0.77275C2.3739 0.882186 2.07434 1.04558 1.80875 1.25587C1.53788 1.47025 1.32062 1.732 1.14587 2.03087C0.96175 2.34625 0.8355 2.68388 0.757 3.0385C0.7145 3.23063 0.687625 3.42813 0.6585 3.62325C0.649375 3.684 0.75 3.74475 0.625 3.80525V4.6545C0.75 4.711 0.651 4.76737 0.65825 4.824C0.675625 4.96012 0.691 5.09738 0.714 5.2325C0.750375 5.44638 0.7935 5.65963 0.8375 5.87213C0.898597 6.16913 0.963018 6.46544 1.03075 6.761C1.08025 6.976 1.13662 7.18975 1.19562 7.40238C1.28575 7.72713 1.3745 8.0525 1.47637 8.37362C1.571 8.672 1.67938 8.96613 1.78688 9.26025C1.93575 9.66713 2.114 10.0609 2.32775 10.4382C2.51262 10.765 2.72388 11.071 3.00725 11.3228C3.194 11.4886 3.40187 11.6161 3.64387 11.6799C3.834 11.7299 4.02725 11.7359 4.22188 11.696C4.44358 11.6508 4.65071 11.5516 4.82487 11.4071C4.84525 11.3904 4.86762 11.3776 4.89175 11.4084C4.98362 11.5247 5.10662 11.6024 5.23525 11.6695C5.58237 11.8505 5.96062 11.9048 6.34487 11.9269C6.43787 11.9323 6.53188 11.9189 6.62563 11.9163C6.80825 11.9113 6.98575 11.8756 7.16038 11.8251C7.25188 11.7986 7.34125 11.765 7.43437 11.7336C7.43925 11.8328 7.4455 11.9283 7.44838 12.0238L7.46138 12.5445C7.46375 12.6238 7.46687 12.7033 7.47425 12.7821C7.49312 12.9855 7.51162 13.189 7.53587 13.3918C7.55275 13.5315 7.57025 13.6724 7.60313 13.8088C7.66892 14.0841 7.75919 14.353 7.87288 14.6123C7.98156 14.864 8.14868 15.0861 8.36038 15.2604C8.63788 15.4899 8.96312 15.5878 9.31437 15.6059C9.45962 15.6135 9.609 15.6064 9.752 15.5804C9.97928 15.54 10.2041 15.4868 10.4254 15.421C10.8742 15.2855 11.2622 15.0515 11.5521 14.6734C11.7171 14.4579 11.8526 14.2247 11.9396 13.9674C12.0114 13.7547 12.079 13.54 12.1327 13.3224C12.1752 13.1509 12.1963 12.974 12.2221 12.7989C12.2393 12.683 12.2495 12.566 12.2603 12.4493C12.2778 12.2596 12.2956 12.0701 12.3083 11.8801C12.317 11.7479 12.3166 11.615 12.3219 11.4825C12.3235 11.4421 12.33 11.402 12.3337 11.3617C12.3372 11.3245 12.356 11.3116 12.394 11.3123C12.5279 11.3143 12.662 11.3178 12.7955 11.3118C12.9451 11.305 13.0961 11.2986 13.2434 11.2739C13.4532 11.2388 13.6613 11.1942 13.8671 11.1405C14.11 11.077 14.3327 10.9632 14.5471 10.8336C14.7969 10.6827 15.0245 10.5058 15.2093 10.2778C15.3699 10.0789 15.446 9.849 15.4073 9.598ZM14.9808 9.72075C14.9725 9.83512 14.9201 9.93313 14.8441 10.0169C14.4855 10.4123 14.0356 10.6521 13.521 10.7703C13.3255 10.815 13.1237 10.8382 12.9236 10.8567C12.7526 10.8718 12.5809 10.8759 12.4094 10.8689C12.2836 10.8641 12.1589 10.8354 12.0304 10.8169C12.0175 10.9344 12.0052 11.0567 11.9904 11.1789L11.9305 11.647C11.9124 11.7954 11.8983 11.9442 11.8796 12.0925C11.8614 12.2364 11.8386 12.3798 11.8195 12.5236C11.8016 12.6576 11.7885 12.7922 11.7686 12.926C11.738 13.131 11.7087 13.3365 11.6687 13.5399C11.6207 13.783 11.5471 14.0185 11.427 14.2378C11.2805 14.5054 11.0728 14.7093 10.8084 14.8603C10.5359 15.016 10.238 15.097 9.936 15.1648C9.72225 15.2128 9.502 15.2206 9.2855 15.2011C8.91 15.1671 8.5895 15.0065 8.34725 14.7154C8.116 14.4375 7.9595 14.119 7.9035 13.7585C7.87735 13.5869 7.85688 13.4145 7.84212 13.2415C7.82554 13.0493 7.81308 12.8567 7.80475 12.664C7.79367 12.4195 7.78546 12.1748 7.78013 11.9301C7.7735 11.6294 7.77138 11.3286 7.76713 11.0279L7.76638 11.0164C7.61338 11.1081 7.463 11.2086 7.3035 11.2914C7.11709 11.3878 6.91305 11.4453 6.70375 11.4605C6.539 11.473 6.37213 11.4844 6.20813 11.4712C5.93925 11.4496 5.67062 11.4075 5.42987 11.2751C5.33225 11.2214 5.23038 11.156 5.16313 11.0701C5.00188 10.8644 5.07912 10.6044 5.32225 10.4792C5.49025 10.3926 5.67363 10.3565 5.85575 10.3144C6.01428 10.2785 6.17114 10.2356 6.32587 10.1858C6.47862 10.1358 6.575 10.0119 6.67013 9.89038L6.82088 9.6965C6.758 9.68987 6.69875 9.68312 6.6395 9.67762C6.45963 9.66062 6.288 9.61112 6.12388 9.53837C5.98338 9.47625 5.98125 9.4695 5.87825 9.58125C5.70625 9.768 5.539 9.95913 5.3705 10.149C5.2465 10.2886 5.12325 10.4291 4.99988 10.5691C4.87763 10.7076 4.76312 10.854 4.6315 10.9829C4.436 11.1742 4.20038 11.2894 3.91925 11.2764C3.73888 11.2681 3.57375 11.2049 3.42525 11.1015C3.11875 10.888 2.91225 10.5894 2.72425 10.2758C2.48338 9.87388 2.2985 9.44575 2.14025 9.00587C2.03075 8.70187 1.92075 8.39762 1.82512 8.08925C1.72125 7.75412 1.63013 7.41475 1.5405 7.0755C1.47354 6.81919 1.41178 6.56156 1.35525 6.30275C1.28932 6.00883 1.22831 5.71383 1.17225 5.41787C1.135 5.218 1.11338 5.01525 1.08325 4.814C1.04263 4.54275 1.03513 4.269 1.04988 3.99662C1.063 3.75125 1.09825 3.5065 1.13325 3.26275C1.18175 2.9255 1.29287 2.60725 1.45275 2.30675C1.55062 2.12263 1.67213 1.95525 1.81263 1.79975C2.04325 1.5445 2.32237 1.36 2.63287 1.2215C2.84987 1.12475 3.07913 1.0665 3.31275 1.021C3.6595 0.9535 4.00938 0.956125 4.35938 0.963375C4.51237 0.9665 4.66475 0.994375 4.81763 1.0095C5.14675 1.04225 5.46938 1.1115 5.78788 1.197C6.02 1.25925 6.24737 1.33988 6.47762 1.40988C6.50075 1.41688 6.53463 1.41625 6.5535 1.40387C6.8655 1.20025 7.2065 1.06588 7.56913 0.989C7.70675 0.959875 7.84875 0.947125 7.9895 0.938125C8.16063 0.92725 8.33312 0.91725 8.50387 0.927125C8.70912 0.938875 8.91338 0.969125 9.11738 0.997125C9.21638 1.01063 9.313 1.045 9.41225 1.05438C9.45975 1.05888 9.51013 1.02413 9.56038 1.0125C9.8165 0.953375 10.0715 0.8875 10.3299 0.84075C10.5222 0.806 10.7188 0.789625 10.9144 0.778375C11.1325 0.765875 11.3522 0.75675 11.5702 0.76725C11.8463 0.780947 12.1205 0.819563 12.3896 0.882625C12.7242 0.9605 13.0453 1.07363 13.3504 1.23063C13.5784 1.34788 13.7951 1.48387 13.9902 1.65112C14.1181 1.76087 14.249 1.86925 14.3645 1.9915C14.507 2.14225 14.6524 2.29312 14.7417 2.48625C14.809 2.63187 14.857 2.78263 14.8702 2.94213C14.8867 3.14038 14.9067 3.33937 14.9049 3.53787C14.9031 3.72775 14.8773 3.9175 14.8589 4.10687C14.8171 4.53862 14.7233 4.961 14.6093 5.37775C14.5139 5.722 14.4059 6.06265 14.2856 6.399C14.1758 6.70913 14.049 7.01362 13.9209 7.31687C13.8266 7.5415 13.7241 7.76261 13.6136 7.97975C13.404 8.3905 13.186 8.797 12.9339 9.18388C12.8904 9.25075 12.8491 9.31925 12.8066 9.3875C12.9166 9.46175 13.0412 9.48788 13.1667 9.50138C13.2861 9.51438 13.4079 9.52213 13.5271 9.51325C13.718 9.49913 13.9082 9.47187 14.098 9.44525C14.286 9.419 14.4702 9.3655 14.6632 9.37963C14.856 9.39363 14.9939 9.54012 14.9808 9.72075ZM12.2291 9.30163C12.1473 9.19588 12.0638 9.09138 11.9836 8.98438C11.8579 8.81638 11.7675 8.62875 11.6768 8.44025C11.5908 8.26163 11.4852 8.0925 11.3946 7.91587C11.2365 7.60775 11.0755 7.30062 10.9299 6.9865C10.7468 6.59187 10.6024 6.18325 10.5569 5.74613C10.5376 5.56113 10.5327 5.37637 10.5701 5.19312C10.63 4.9005 10.7829 4.67163 11.0399 4.51463C11.2783 4.369 11.5439 4.322 11.816 4.30725C11.9849 4.29813 12.1545 4.30562 12.3298 4.30562L12.3239 4.276C12.2149 4.04813 12.113 3.81637 11.9937 3.59387C11.8255 3.27987 11.6102 2.99675 11.3705 2.73425C11.1929 2.53988 11.0005 2.3595 10.7898 2.20012C10.5825 2.04325 10.3641 1.90312 10.1311 1.7885C9.85325 1.65187 9.56388 1.54625 9.26025 1.47888C8.9685 1.41413 8.67487 1.3745 8.37562 1.37125C8.12037 1.3685 7.86675 1.38 7.61812 1.43763C7.24287 1.5245 6.89962 1.679 6.601 1.92925C6.43566 2.06768 6.288 2.22596 6.16138 2.4005C6.01188 2.60588 5.89125 2.82763 5.78813 3.06013C5.64663 3.37913 5.5495 3.71112 5.48313 4.05237C5.44988 4.2225 5.42388 4.39413 5.39738 4.56563C5.38813 4.62563 5.38737 4.687 5.382 4.75575C5.42812 4.73175 5.46138 4.71325 5.49538 4.69675L5.606 4.64712C5.98012 4.476 6.36775 4.36587 6.78438 4.3785C6.96138 4.38387 7.13075 4.41888 7.28813 4.49638C7.59 4.64525 7.76663 4.89838 7.84338 5.21875C7.89638 5.43988 7.93263 5.66538 7.96788 5.89025C7.9955 6.06588 8.02375 6.24337 8.027 6.4205C8.03163 6.67937 8.0185 6.93875 8.00438 7.1975C7.99222 7.41752 7.9467 7.63441 7.86938 7.84075C7.72938 8.21488 7.57338 8.58287 7.42763 8.95487C7.3795 9.07775 7.3425 9.205 7.297 9.34013C7.36725 9.34013 7.42425 9.33962 7.48125 9.34037C7.5035 9.34075 7.52625 9.34138 7.54775 9.3465C7.71525 9.386 7.8605 9.46187 7.97963 9.59075C8.1385 9.76225 8.22187 9.96238 8.22612 10.194C8.2285 10.3224 8.215 10.4511 8.21562 10.5795C8.21825 11.1778 8.22275 11.776 8.22775 12.3741C8.22862 12.4719 8.2335 12.5697 8.2405 12.6674C8.25513 12.8717 8.26988 13.0762 8.28988 13.2801C8.30388 13.4247 8.32337 13.5691 8.34625 13.7128C8.37862 13.9163 8.47125 14.0974 8.57638 14.2705C8.66688 14.4194 8.7845 14.5459 8.9395 14.6331C9.20287 14.7814 9.4865 14.7938 9.77238 14.7391C9.9655 14.7023 10.1551 14.643 10.3426 14.5819C10.5271 14.5228 10.6954 14.4222 10.8348 14.2876C10.9661 14.1603 11.0594 14.005 11.1222 13.8336C11.2442 13.5012 11.2823 13.1512 11.3328 12.804C11.3516 12.674 11.368 12.5436 11.3853 12.4134C11.4049 12.2651 11.4248 12.117 11.4438 11.9689C11.4578 11.8585 11.4705 11.7479 11.484 11.6375C11.5033 11.479 11.5236 11.3206 11.542 11.162C11.5561 11.0394 11.5681 10.9163 11.5806 10.7934C11.5967 10.6364 11.6141 10.4794 11.628 10.3221C11.6388 10.2028 11.6344 10.0812 11.6555 9.96412C11.6944 9.74937 11.7959 9.56662 11.9862 9.4485C12.0659 9.39912 12.1558 9.36662 12.2441 9.32487L12.2291 9.30163ZM5.0295 8.42013C4.9345 8.19688 4.87731 7.95939 4.86025 7.71737C4.84425 7.48925 4.87138 7.262 4.89475 7.03487C4.9175 6.81487 4.93637 6.59388 4.943 6.37288C4.954 6.00963 4.9295 5.64687 4.91213 5.28387C4.90163 5.06775 4.92675 4.849 4.946 4.63237C4.96338 4.43725 4.985 4.24163 5.02187 4.04938C5.08375 3.72675 5.16588 3.40875 5.28263 3.1005C5.3935 2.80825 5.52087 2.52362 5.70075 2.26737C5.824 2.09162 5.96387 1.92738 6.09825 1.75563L6.05837 1.7415C5.62112 1.60263 5.17675 1.49413 4.71975 1.44675C4.50362 1.42438 4.28675 1.41125 4.07 1.39838C4.0035 1.39438 3.936 1.40337 3.86925 1.40975C3.704 1.4255 3.53675 1.43175 3.37413 1.46275C3.09738 1.51537 2.83187 1.60388 2.586 1.748C2.36525 1.87738 2.17988 2.04462 2.02463 2.24525C1.85313 2.46675 1.73775 2.71725 1.65488 2.98438C1.557 3.2995 1.51038 3.62375 1.49775 3.951C1.48675 4.23787 1.48125 4.52638 1.53075 4.81213C1.56763 5.02488 1.59225 5.23987 1.63287 5.45175C1.68825 5.74062 1.74762 6.02888 1.81625 6.31475C1.91437 6.724 2.01237 7.13388 2.12862 7.53813C2.23987 7.9255 2.36537 8.30938 2.50137 8.68863C2.61262 8.99813 2.74125 9.30188 2.87675 9.60163C2.965 9.79688 3.07188 9.98475 3.18388 10.1676C3.303 10.3618 3.4385 10.546 3.62238 10.6869C3.85438 10.8648 4.034 10.8924 4.26975 10.6973C4.37075 10.6136 4.45613 10.5104 4.544 10.412C4.68363 10.2557 4.81838 10.0953 4.95738 9.9385C5.13438 9.73875 5.31362 9.54112 5.4915 9.34237C5.52912 9.30037 5.56525 9.25713 5.60187 9.21463L5.54138 9.1615C5.32171 8.9521 5.14747 8.69974 5.0295 8.42013ZM11.7405 2.474C11.8859 2.64313 12.0239 2.81846 12.1541 2.9995C12.4041 3.35063 12.6039 3.72975 12.751 4.13538C12.8161 4.31413 12.8681 4.49462 12.8449 4.69025C12.8288 4.82725 12.8301 4.96625 12.818 5.104C12.8079 5.21863 12.7897 5.33263 12.7749 5.44688C12.7526 5.61913 12.7204 5.79087 12.7107 5.96387C12.7016 6.1285 12.7111 6.29488 12.7215 6.45988C12.732 6.6275 12.7546 6.79438 12.77 6.96175C12.7874 7.1515 12.8107 7.34125 12.8161 7.53137C12.8205 7.6875 12.8066 7.84462 12.793 8.0005C12.7768 8.18825 12.7291 8.37 12.6581 8.54438C12.6082 8.66713 12.5486 8.78613 12.4923 8.909L12.5149 8.933L12.5492 8.95963L12.5839 8.89762C12.8761 8.43737 13.136 7.95734 13.3616 7.461C13.5059 7.14056 13.6429 6.8169 13.7725 6.49025C13.9755 5.98225 14.1361 5.46 14.2604 4.92737C14.3161 4.68825 14.3587 4.4455 14.3966 4.20275C14.4261 4.013 14.4508 3.821 14.4563 3.6295C14.4621 3.42637 14.4509 3.22163 14.4321 3.019C14.4181 2.866 14.3804 2.712 14.2845 2.58763C14.1304 2.38738 13.964 2.19587 13.7594 2.04437C13.5871 1.91675 13.4155 1.78588 13.2306 1.6785C12.9375 1.5085 12.6202 1.39525 12.2887 1.31813C11.9652 1.24275 11.6375 1.21025 11.3076 1.20337C11.1131 1.19925 10.9178 1.22012 10.7236 1.23837C10.5478 1.25487 10.373 1.283 10.1959 1.30625C10.3859 1.41312 10.5732 1.50813 10.75 1.62013C11.1216 1.8555 11.4546 2.13875 11.7405 2.474ZM6.91237 9.06425C7.0325 8.68012 7.19613 8.31338 7.35463 7.94438C7.48313 7.64513 7.55337 7.32987 7.57675 7.00612C7.58837 6.8465 7.58513 6.68488 7.57725 6.52475C7.56936 6.34662 7.55301 6.16896 7.52825 5.99237C7.495 5.76725 7.45712 5.542 7.40387 5.321C7.34612 5.08188 7.2005 4.91538 6.951 4.854C6.799 4.81663 6.648 4.81812 6.49438 4.84237C6.11913 4.9015 5.77563 5.03975 5.45563 5.24225C5.39125 5.283 5.35588 5.31587 5.367 5.40825C5.3905 5.60387 5.39563 5.80262 5.39475 6.00012C5.3935 6.27962 5.38162 6.55913 5.371 6.8385C5.3675 6.9295 5.35437 7.02 5.34462 7.11062C5.32962 7.24937 5.30075 7.388 5.30162 7.5265C5.3025 7.66925 5.31712 7.81538 5.35175 7.95363C5.46175 8.392 5.69475 8.75075 6.07662 9.00387C6.3115 9.1595 6.57138 9.238 6.85663 9.25288C6.876 9.18738 6.89325 9.1255 6.91237 9.06425ZM6.46413 5.30337C6.41388 5.19787 6.44262 5.1105 6.55912 5.07C6.5875 5.06 6.61675 5.04938 6.64625 5.0465C6.68675 5.0425 6.728 5.0455 6.769 5.0455C6.91675 5.04625 7.05887 5.06687 7.18087 5.16087C7.25912 5.22112 7.28012 5.30113 7.2295 5.38325C7.15762 5.49975 7.048 5.55825 6.91337 5.5695C6.70125 5.58712 6.55238 5.48825 6.46413 5.30337ZM12.3441 5.26487C12.3611 5.12437 12.3748 4.9835 12.3921 4.843C12.3991 4.7865 12.3694 4.77125 12.322 4.76988C12.173 4.76575 12.024 4.7605 11.875 4.75775C11.707 4.75475 11.5435 4.78175 11.388 4.84562C11.2155 4.91662 11.0841 5.03037 11.0305 5.21812C10.9911 5.35656 10.9787 5.50126 10.9939 5.64437C11.0146 5.86571 11.0647 6.0833 11.143 6.29138C11.2472 6.569 11.3564 6.8465 11.4867 7.1125C11.6634 7.47263 11.8632 7.82125 12.0509 8.17587C12.101 8.2705 12.1431 8.36925 12.1954 8.47975C12.3007 8.26005 12.3582 8.02055 12.3643 7.777C12.3694 7.57575 12.3533 7.37362 12.3415 7.17225C12.3341 7.049 12.3168 6.9265 12.3048 6.8035C12.288 6.63213 12.2626 6.46087 12.2587 6.28912C12.2549 6.1145 12.2673 5.93888 12.2823 5.7645C12.2964 5.59725 12.324 5.43137 12.3441 5.26487ZM12.008 5.12962C11.9526 5.2825 11.8342 5.36875 11.6807 5.39412C11.5376 5.41762 11.4123 5.36475 11.319 5.25063C11.2526 5.16938 11.278 5.07312 11.3775 5.01825C11.4917 4.955 11.6174 4.939 11.7655 4.92938C11.8058 4.93675 11.8664 4.94287 11.924 4.95937C12.0076 4.983 12.0385 5.04587 12.008 5.12962ZM7.58025 9.83712C7.49837 9.77025 7.39013 9.76638 7.31225 9.83975C7.21563 9.931 7.13063 10.0354 7.04563 10.1383C6.9475 10.2571 6.8555 10.3807 6.72888 10.4729C6.54463 10.6067 6.32987 10.6623 6.114 10.7148C5.94237 10.7565 5.77 10.7952 5.59788 10.8354L5.59575 10.8576C5.64687 10.8813 5.69638 10.9107 5.74963 10.9276C6.01213 11.0107 6.27912 11.0521 6.5565 11.0286C6.75675 11.0116 6.9475 10.968 7.12825 10.8822C7.377 10.7644 7.56837 10.5776 7.73112 10.3604C7.75837 10.3241 7.77075 10.2705 7.774 10.2238C7.78513 10.0586 7.70125 9.93587 7.58025 9.83712ZM14.0491 9.90287C13.8379 9.9255 13.6264 9.9495 13.4145 9.96163C13.3123 9.9675 13.2085 9.948 13.1053 9.93962C12.9321 9.92562 12.7631 9.88713 12.6167 9.79463C12.532 9.74125 12.4616 9.73525 12.3716 9.7655C12.2431 9.80875 12.1383 9.8745 12.1073 10.0138C12.0861 10.1079 12.0785 10.2054 12.07 10.3018C12.0684 10.3188 12.0896 10.35 12.1059 10.3542C12.205 10.3804 12.3046 10.4112 12.406 10.4204C12.5305 10.4316 12.6573 10.428 12.7826 10.4218C12.918 10.415 13.0542 10.4062 13.1876 10.3837C13.502 10.331 13.8061 10.245 14.0763 10.0667C14.1736 10.0024 14.2701 9.93663 14.3669 9.8715L14.3589 9.85775C14.2556 9.87312 14.1529 9.89187 14.0491 9.90287Z" fill="#f6f6f6"/>
</g>
<defs>
<clipPath id="clip0_4225_9459">
<rect width="16" height="16" fill="white"/>
</clipPath>
</defs>
</svg>
