<svg width="24" height="24" viewBox="0 0 24 24" fill="none" xmlns="http://www.w3.org/2000/svg">
<g clip-path="url(#clip0_4225_9437)">
<mask id="mask0_4225_9437" style="mask-type:luminance" maskUnits="userSpaceOnUse" x="0" y="0" width="24" height="24">
<path d="M0 0H24V24H0V0Z" fill="white"/>
</mask>
<g mask="url(#mask0_4225_9437)">
<path d="M11.914 0C5.82 0 6.2 2.656 6.2 2.656L6.207 5.408H12.021V6.234H3.9C3.9 6.234 0 5.789 0 11.969C0 18.149 3.403 17.929 3.403 17.929H5.433V15.062C5.433 15.062 5.324 11.642 8.783 11.642H14.549C14.549 11.642 17.789 11.694 17.789 8.494V3.202C17.789 3.202 18.281 0 11.914 0ZM8.708 1.85C9.286 1.85 9.754 2.32 9.754 2.902C9.754 3.483 9.286 3.953 8.708 3.953C8.13 3.953 7.662 3.483 7.662 2.902C7.662 2.32 8.129 1.85 8.708 1.85Z" fill="white"/>
<path d="M12.087 24.0003C18.179 24.0003 17.799 21.3443 17.799 21.3443L17.792 18.5923H11.978V17.7663H20.101C20.101 17.7663 24.001 18.2113 24.001 12.0313C24.001 5.85128 20.597 6.07128 20.597 6.07128H18.567V8.93828C18.567 8.93828 18.676 12.3583 15.217 12.3583H9.452C9.452 12.3583 6.212 12.3063 6.212 15.5063V20.7983C6.212 20.7983 5.72 24.0003 12.087 24.0003ZM15.293 22.1503C14.714 22.1503 14.247 21.6803 14.247 21.0983C14.247 20.5173 14.714 20.0473 15.293 20.0473C15.871 20.0473 16.339 20.5173 16.339 21.0983C16.339 21.6803 15.871 22.1503 15.293 22.1503Z" fill="white"/>
</g>
</g>
<defs>
<clipPath id="clip0_4225_9437">
<rect width="24" height="24" fill="white"/>
</clipPath>
</defs>
</svg>
