<svg width="15" height="15" viewBox="0 0 15 15" fill="none" xmlns="http://www.w3.org/2000/svg">
<g clip-path="url(#clip0_4225_9451)">
<path d="M14.5 7.58398C14.5 9.24098 11.366 10.584 7.5 10.584C3.634 10.584 0.5 9.24098 0.5 7.58398C0.5 5.92698 3.634 4.58398 7.5 4.58398C11.366 4.58398 14.5 5.92698 14.5 7.58398Z" stroke="#f6f6f6"/>
<path d="M4.166 13.739C5.623 14.529 8.296 12.412 10.138 9.01302C11.979 5.61302 12.291 2.21802 10.834 1.42902C9.377 0.639017 6.704 2.75602 4.862 6.15502C3.021 9.55502 2.709 12.95 4.166 13.739Z" stroke="#f6f6f6"/>
<path d="M10.834 13.739C9.377 14.529 6.704 12.412 4.862 9.01302C3.021 5.61302 2.709 2.21802 4.166 1.42902C5.623 0.639017 8.296 2.75602 10.138 6.15502C11.979 9.55502 12.291 12.95 10.834 13.739Z" stroke="#f6f6f6"/>
<path d="M6.5 7.58398C6.5 7.8492 6.60536 8.10356 6.79289 8.29109C6.98043 8.47863 7.23478 8.58398 7.5 8.58398C7.76522 8.58398 8.01957 8.47863 8.20711 8.29109C8.39464 8.10356 8.5 7.8492 8.5 7.58398C8.5 7.31877 8.39464 7.06441 8.20711 6.87688C8.01957 6.68934 7.76522 6.58398 7.5 6.58398C7.23478 6.58398 6.98043 6.68934 6.79289 6.87688C6.60536 7.06441 6.5 7.31877 6.5 7.58398Z" stroke="#f6f6f6"/>
</g>
<defs>
<clipPath id="clip0_4225_9451">
<rect width="15" height="15" fill="white"/>
</clipPath>
</defs>
</svg>
