<svg width="15" height="15" viewBox="0 0 15 15" fill="none" xmlns="http://www.w3.org/2000/svg">
<g clip-path="url(#clip0_4225_9448)">
<path d="M2.71703 1H0.500026C0.412049 0.999974 0.325623 1.02316 0.249474 1.06722C0.173324 1.11128 0.110149 1.17465 0.0663252 1.25094C0.0225017 1.32722 -0.000417842 1.41372 -0.000119189 1.5017C0.000179465 1.58967 0.0236857 1.67601 0.0680261 1.752L7.06803 13.752C7.11204 13.8275 7.1751 13.8902 7.2509 13.9338C7.3267 13.9773 7.4126 14.0003 7.50003 14.0003C7.58745 14.0003 7.67335 13.9773 7.74915 13.9338C7.82495 13.8902 7.88801 13.8275 7.93203 13.752L14.932 1.752C14.9764 1.67601 14.9999 1.58967 15.0002 1.5017C15.0005 1.41372 14.9775 1.32722 14.9337 1.25094C14.8899 1.17465 14.8267 1.11128 14.7506 1.06722C14.6744 1.02316 14.588 0.999974 14.5 1H12.283L7.50003 8.972L2.71703 1Z" fill="black"/>
<path d="M11.117 1H8.19L7.5 2.382L6.809 1H3.883L7.5 7.028L11.117 1Z" fill="black"/>
</g>
<defs>
<clipPath id="clip0_4225_9448">
<rect width="15" height="15" fill="white"/>
</clipPath>
</defs>
</svg>
